G75*
%MOIN*%
%OFA0B0*%
%FSLAX25Y25*%
%IPPOS*%
%LPD*%
%AMOC8*
5,1,8,0,0,1.08239X$1,22.5*
%
%ADD10C,0.00039*%
%ADD11C,0.00500*%
%ADD12C,0.00400*%
%ADD13C,0.00000*%
%ADD14C,0.00600*%
D10*
X0008864Y0047693D02*
X0213274Y0047693D01*
X0213458Y0047665D01*
X0213643Y0047641D01*
X0213828Y0047622D01*
X0214014Y0047608D01*
X0214200Y0047598D01*
X0214386Y0047592D01*
X0214573Y0047591D01*
X0214759Y0047595D01*
X0214945Y0047603D01*
X0215131Y0047615D01*
X0215317Y0047632D01*
X0215502Y0047653D01*
X0215686Y0047679D01*
X0215870Y0047709D01*
X0216053Y0047744D01*
X0216235Y0047783D01*
X0216416Y0047827D01*
X0216596Y0047875D01*
X0216775Y0047927D01*
X0216953Y0047984D01*
X0217129Y0048044D01*
X0217304Y0048109D01*
X0217476Y0048179D01*
X0217648Y0048252D01*
X0217817Y0048330D01*
X0217985Y0048411D01*
X0218150Y0048497D01*
X0218313Y0048587D01*
X0218475Y0048680D01*
X0218633Y0048777D01*
X0218790Y0048879D01*
X0218944Y0048984D01*
X0219095Y0049092D01*
X0219244Y0049205D01*
X0219390Y0049320D01*
X0219533Y0049440D01*
X0219673Y0049562D01*
X0219810Y0049689D01*
X0219944Y0049818D01*
X0220075Y0049950D01*
X0220203Y0050086D01*
X0220327Y0050225D01*
X0220448Y0050367D01*
X0220566Y0050511D01*
X0220680Y0050659D01*
X0220790Y0050809D01*
X0220897Y0050961D01*
X0221000Y0051117D01*
X0221099Y0051274D01*
X0221194Y0051434D01*
X0221286Y0051597D01*
X0221373Y0051761D01*
X0221457Y0051928D01*
X0221536Y0052096D01*
X0221612Y0052267D01*
X0221683Y0052439D01*
X0221750Y0052613D01*
X0221813Y0052788D01*
X0221872Y0052965D01*
X0221926Y0053143D01*
X0221976Y0053323D01*
X0222021Y0053503D01*
X0222063Y0053685D01*
X0222100Y0053868D01*
X0222132Y0054051D01*
X0222132Y0143510D01*
X0222099Y0143724D01*
X0222062Y0143937D01*
X0222018Y0144148D01*
X0221970Y0144359D01*
X0221917Y0144569D01*
X0221859Y0144777D01*
X0221795Y0144984D01*
X0221727Y0145189D01*
X0221654Y0145392D01*
X0221576Y0145594D01*
X0221493Y0145793D01*
X0221405Y0145991D01*
X0221312Y0146186D01*
X0221215Y0146379D01*
X0221113Y0146570D01*
X0221007Y0146758D01*
X0220896Y0146944D01*
X0220781Y0147126D01*
X0220661Y0147306D01*
X0220537Y0147483D01*
X0220408Y0147657D01*
X0220276Y0147828D01*
X0220139Y0147996D01*
X0219999Y0148160D01*
X0219854Y0148321D01*
X0219706Y0148478D01*
X0219554Y0148632D01*
X0219398Y0148781D01*
X0219238Y0148928D01*
X0219076Y0149070D01*
X0218909Y0149208D01*
X0218740Y0149342D01*
X0218567Y0149472D01*
X0218391Y0149598D01*
X0218212Y0149719D01*
X0218031Y0149837D01*
X0217846Y0149949D01*
X0217659Y0150058D01*
X0217469Y0150161D01*
X0217277Y0150260D01*
X0217083Y0150355D01*
X0216886Y0150444D01*
X0216687Y0150529D01*
X0216487Y0150609D01*
X0216284Y0150684D01*
X0216079Y0150755D01*
X0215873Y0150820D01*
X0215666Y0150880D01*
X0215457Y0150936D01*
X0215246Y0150986D01*
X0215035Y0151031D01*
X0214823Y0151071D01*
X0214609Y0151106D01*
X0214395Y0151135D01*
X0214180Y0151160D01*
X0213965Y0151179D01*
X0213749Y0151193D01*
X0213533Y0151202D01*
X0213317Y0151206D01*
X0213101Y0151204D01*
X0212885Y0151198D01*
X0212669Y0151186D01*
X0212453Y0151168D01*
X0212238Y0151146D01*
X0212024Y0151118D01*
X0008864Y0151118D01*
X0008680Y0151116D01*
X0008496Y0151109D01*
X0008313Y0151098D01*
X0008130Y0151082D01*
X0007947Y0151063D01*
X0007765Y0151038D01*
X0007583Y0151009D01*
X0007402Y0150976D01*
X0007222Y0150939D01*
X0007043Y0150897D01*
X0006865Y0150851D01*
X0006689Y0150800D01*
X0006513Y0150746D01*
X0006339Y0150687D01*
X0006166Y0150624D01*
X0005995Y0150556D01*
X0005826Y0150485D01*
X0005658Y0150410D01*
X0005492Y0150330D01*
X0005328Y0150247D01*
X0005167Y0150159D01*
X0005007Y0150068D01*
X0004850Y0149973D01*
X0004695Y0149874D01*
X0004542Y0149771D01*
X0004392Y0149665D01*
X0004245Y0149555D01*
X0004100Y0149442D01*
X0003958Y0149325D01*
X0003819Y0149205D01*
X0003683Y0149081D01*
X0003550Y0148954D01*
X0003420Y0148824D01*
X0003293Y0148691D01*
X0003169Y0148555D01*
X0003049Y0148416D01*
X0002932Y0148274D01*
X0002819Y0148129D01*
X0002709Y0147982D01*
X0002603Y0147832D01*
X0002500Y0147679D01*
X0002401Y0147524D01*
X0002306Y0147367D01*
X0002215Y0147207D01*
X0002127Y0147046D01*
X0002044Y0146882D01*
X0001964Y0146716D01*
X0001889Y0146548D01*
X0001818Y0146379D01*
X0001750Y0146208D01*
X0001687Y0146035D01*
X0001628Y0145861D01*
X0001574Y0145685D01*
X0001523Y0145509D01*
X0001477Y0145331D01*
X0001435Y0145152D01*
X0001398Y0144972D01*
X0001365Y0144791D01*
X0001336Y0144609D01*
X0001311Y0144427D01*
X0001292Y0144244D01*
X0001276Y0144061D01*
X0001265Y0143878D01*
X0001258Y0143694D01*
X0001256Y0143510D01*
X0001256Y0054051D01*
X0001273Y0053880D01*
X0001295Y0053709D01*
X0001321Y0053539D01*
X0001351Y0053370D01*
X0001385Y0053201D01*
X0001423Y0053033D01*
X0001466Y0052866D01*
X0001512Y0052701D01*
X0001563Y0052536D01*
X0001617Y0052373D01*
X0001676Y0052211D01*
X0001738Y0052051D01*
X0001804Y0051892D01*
X0001875Y0051735D01*
X0001949Y0051580D01*
X0002027Y0051426D01*
X0002108Y0051275D01*
X0002194Y0051125D01*
X0002283Y0050978D01*
X0002375Y0050833D01*
X0002471Y0050690D01*
X0002571Y0050550D01*
X0002674Y0050412D01*
X0002780Y0050277D01*
X0002890Y0050144D01*
X0003002Y0050014D01*
X0003118Y0049887D01*
X0003237Y0049763D01*
X0003360Y0049642D01*
X0003485Y0049523D01*
X0003612Y0049408D01*
X0003743Y0049296D01*
X0003877Y0049188D01*
X0004013Y0049082D01*
X0004151Y0048980D01*
X0004292Y0048882D01*
X0004435Y0048786D01*
X0004581Y0048695D01*
X0004729Y0048607D01*
X0004879Y0048523D01*
X0005031Y0048442D01*
X0005185Y0048365D01*
X0005341Y0048292D01*
X0005498Y0048223D01*
X0005658Y0048158D01*
X0005818Y0048096D01*
X0005981Y0048039D01*
X0006144Y0047985D01*
X0006309Y0047936D01*
X0006475Y0047891D01*
X0006642Y0047849D01*
X0006810Y0047812D01*
X0006979Y0047779D01*
X0007149Y0047750D01*
X0007319Y0047726D01*
X0007490Y0047705D01*
X0007661Y0047689D01*
X0007833Y0047677D01*
X0008004Y0047669D01*
X0008177Y0047665D01*
X0008349Y0047666D01*
X0008521Y0047671D01*
X0008692Y0047680D01*
X0008864Y0047693D01*
D11*
X0011859Y0049183D02*
X0012907Y0050231D01*
X0013954Y0049183D01*
X0013954Y0052326D01*
X0015211Y0051802D02*
X0015734Y0052326D01*
X0016782Y0052326D01*
X0017306Y0051802D01*
X0017306Y0051278D01*
X0016782Y0050754D01*
X0015734Y0050754D01*
X0015211Y0050231D01*
X0015211Y0049707D01*
X0015734Y0049183D01*
X0016782Y0049183D01*
X0017306Y0049707D01*
X0021914Y0049183D02*
X0021914Y0052326D01*
X0024009Y0052326D02*
X0021914Y0049183D01*
X0024009Y0049183D02*
X0024009Y0052326D01*
X0025266Y0051802D02*
X0025789Y0052326D01*
X0026837Y0052326D01*
X0027361Y0051802D01*
X0027361Y0049707D01*
X0026837Y0049183D01*
X0025789Y0049183D01*
X0025266Y0049707D01*
X0025266Y0050754D01*
X0026313Y0050754D01*
X0031969Y0049183D02*
X0034064Y0049183D01*
X0033016Y0049183D02*
X0033016Y0052326D01*
X0034064Y0051278D01*
X0035321Y0051278D02*
X0035321Y0051802D01*
X0035844Y0052326D01*
X0036892Y0052326D01*
X0037416Y0051802D01*
X0035321Y0051278D02*
X0037416Y0049183D01*
X0035321Y0049183D01*
X0042024Y0049183D02*
X0044119Y0049183D01*
X0042024Y0051278D01*
X0042024Y0051802D01*
X0042548Y0052326D01*
X0043595Y0052326D01*
X0044119Y0051802D01*
X0045376Y0051802D02*
X0045899Y0052326D01*
X0046947Y0052326D01*
X0047471Y0051802D01*
X0045376Y0051802D02*
X0045376Y0051278D01*
X0047471Y0049183D01*
X0045376Y0049183D01*
X0052079Y0049707D02*
X0052603Y0049183D01*
X0053650Y0049183D01*
X0054174Y0049707D01*
X0055431Y0049183D02*
X0057526Y0049183D01*
X0055431Y0051278D01*
X0055431Y0051802D01*
X0055954Y0052326D01*
X0057002Y0052326D01*
X0057526Y0051802D01*
X0054174Y0051802D02*
X0053650Y0052326D01*
X0052603Y0052326D01*
X0052079Y0051802D01*
X0052079Y0051278D01*
X0052603Y0050754D01*
X0052079Y0050231D01*
X0052079Y0049707D01*
X0052603Y0050754D02*
X0053126Y0050754D01*
X0062134Y0051802D02*
X0064229Y0049707D01*
X0064229Y0049183D01*
X0065486Y0049183D02*
X0065486Y0051278D01*
X0066533Y0052326D01*
X0067581Y0051278D01*
X0067581Y0049183D01*
X0067581Y0050754D02*
X0065486Y0050754D01*
X0064229Y0052326D02*
X0062134Y0052326D01*
X0062134Y0051802D01*
X0072189Y0052326D02*
X0074284Y0052326D01*
X0074284Y0049183D01*
X0075541Y0049183D02*
X0075541Y0051278D01*
X0076588Y0052326D01*
X0077636Y0051278D01*
X0077636Y0049183D01*
X0082244Y0049707D02*
X0082768Y0049183D01*
X0083815Y0049183D01*
X0084339Y0049707D01*
X0082244Y0051802D01*
X0082244Y0049707D01*
X0084339Y0049707D02*
X0084339Y0051802D01*
X0083815Y0052326D01*
X0082768Y0052326D01*
X0082244Y0051802D01*
X0077636Y0050754D02*
X0075541Y0050754D01*
X0074284Y0050754D02*
X0073236Y0050754D01*
X0085595Y0050754D02*
X0087691Y0050754D01*
X0087691Y0051278D02*
X0086643Y0052326D01*
X0085595Y0051278D01*
X0085595Y0049183D01*
X0087691Y0049183D02*
X0087691Y0051278D01*
X0092299Y0049183D02*
X0094394Y0049183D01*
X0093346Y0049183D02*
X0093346Y0052326D01*
X0094394Y0051278D01*
X0095650Y0051278D02*
X0095650Y0049183D01*
X0097746Y0049183D02*
X0097746Y0051278D01*
X0096698Y0052326D01*
X0095650Y0051278D01*
X0095650Y0050754D02*
X0097746Y0050754D01*
X0102354Y0051278D02*
X0104449Y0049183D01*
X0102354Y0049183D01*
X0105705Y0049183D02*
X0105705Y0051278D01*
X0106753Y0052326D01*
X0107801Y0051278D01*
X0107801Y0049183D01*
X0107801Y0050754D02*
X0105705Y0050754D01*
X0104449Y0051802D02*
X0103925Y0052326D01*
X0102878Y0052326D01*
X0102354Y0051802D01*
X0102354Y0051278D01*
X0112409Y0051278D02*
X0112933Y0050754D01*
X0112409Y0050231D01*
X0112409Y0049707D01*
X0112933Y0049183D01*
X0113980Y0049183D01*
X0114504Y0049707D01*
X0115760Y0049183D02*
X0115760Y0051278D01*
X0116808Y0052326D01*
X0117856Y0051278D01*
X0117856Y0049183D01*
X0117856Y0050754D02*
X0115760Y0050754D01*
X0114504Y0051802D02*
X0113980Y0052326D01*
X0112933Y0052326D01*
X0112409Y0051802D01*
X0112409Y0051278D01*
X0112933Y0050754D02*
X0113456Y0050754D01*
X0122464Y0050754D02*
X0124559Y0050754D01*
X0122988Y0052326D01*
X0122988Y0049183D01*
X0125815Y0049183D02*
X0125815Y0051278D01*
X0126863Y0052326D01*
X0127911Y0051278D01*
X0127911Y0049183D01*
X0132519Y0049707D02*
X0133043Y0049183D01*
X0134090Y0049183D01*
X0134614Y0049707D01*
X0134614Y0050754D02*
X0133566Y0051278D01*
X0133043Y0051278D01*
X0132519Y0050754D01*
X0132519Y0049707D01*
X0134614Y0050754D02*
X0134614Y0052326D01*
X0132519Y0052326D01*
X0135870Y0051278D02*
X0135870Y0049183D01*
X0137966Y0049183D02*
X0137966Y0051278D01*
X0136918Y0052326D01*
X0135870Y0051278D01*
X0135870Y0050754D02*
X0137966Y0050754D01*
X0142574Y0050231D02*
X0143098Y0050754D01*
X0144669Y0050754D01*
X0144669Y0049707D01*
X0144145Y0049183D01*
X0143098Y0049183D01*
X0142574Y0049707D01*
X0142574Y0050231D01*
X0143621Y0051802D02*
X0144669Y0050754D01*
X0145925Y0050754D02*
X0148020Y0050754D01*
X0148020Y0051278D02*
X0146973Y0052326D01*
X0145925Y0051278D01*
X0145925Y0049183D01*
X0148020Y0049183D02*
X0148020Y0051278D01*
X0152629Y0051802D02*
X0152629Y0049707D01*
X0153152Y0049183D01*
X0154200Y0049183D01*
X0154724Y0049707D01*
X0152629Y0051802D01*
X0153152Y0052326D01*
X0154200Y0052326D01*
X0154724Y0051802D01*
X0154724Y0049707D01*
X0155980Y0049707D02*
X0155980Y0051802D01*
X0156504Y0052326D01*
X0158075Y0052326D01*
X0158075Y0049183D01*
X0156504Y0049183D01*
X0155980Y0049707D01*
X0162684Y0049183D02*
X0164779Y0049183D01*
X0163731Y0049183D02*
X0163731Y0052326D01*
X0164779Y0051278D01*
X0166035Y0051802D02*
X0166559Y0052326D01*
X0168130Y0052326D01*
X0168130Y0049183D01*
X0166559Y0049183D01*
X0166035Y0049707D01*
X0166035Y0051802D01*
X0172739Y0051802D02*
X0173262Y0052326D01*
X0174310Y0052326D01*
X0174834Y0051802D01*
X0176090Y0051802D02*
X0176090Y0049707D01*
X0176614Y0049183D01*
X0178185Y0049183D01*
X0178185Y0052326D01*
X0176614Y0052326D01*
X0176090Y0051802D01*
X0174834Y0049183D02*
X0172739Y0049183D01*
X0174834Y0049183D02*
X0172739Y0051278D01*
X0172739Y0051802D01*
X0182794Y0051802D02*
X0182794Y0051278D01*
X0183317Y0050754D01*
X0182794Y0050231D01*
X0182794Y0049707D01*
X0183317Y0049183D01*
X0184365Y0049183D01*
X0184889Y0049707D01*
X0186145Y0049707D02*
X0186145Y0051802D01*
X0186669Y0052326D01*
X0188240Y0052326D01*
X0188240Y0049183D01*
X0186669Y0049183D01*
X0186145Y0049707D01*
X0184889Y0051802D02*
X0184365Y0052326D01*
X0183317Y0052326D01*
X0182794Y0051802D01*
X0183317Y0050754D02*
X0183841Y0050754D01*
X0192849Y0050754D02*
X0194944Y0050754D01*
X0193372Y0052326D01*
X0193372Y0049183D01*
X0196200Y0049707D02*
X0196200Y0051802D01*
X0196724Y0052326D01*
X0198295Y0052326D01*
X0198295Y0049183D01*
X0196724Y0049183D01*
X0196200Y0049707D01*
X0202904Y0049707D02*
X0203427Y0049183D01*
X0204475Y0049183D01*
X0204999Y0049707D01*
X0204999Y0050754D02*
X0203951Y0051278D01*
X0203427Y0051278D01*
X0202904Y0050754D01*
X0202904Y0049707D01*
X0204999Y0050754D02*
X0204999Y0052326D01*
X0202904Y0052326D01*
X0206255Y0051802D02*
X0206779Y0052326D01*
X0208350Y0052326D01*
X0208350Y0049183D01*
X0206779Y0049183D01*
X0206255Y0049707D01*
X0206255Y0051802D01*
X0212631Y0076683D02*
X0212107Y0077207D01*
X0212107Y0079302D01*
X0212631Y0079826D01*
X0214202Y0079826D01*
X0214202Y0076683D01*
X0212631Y0076683D01*
X0215459Y0076683D02*
X0215459Y0079826D01*
X0217554Y0079826D02*
X0215459Y0076683D01*
X0217554Y0076683D02*
X0217554Y0079826D01*
X0218810Y0079302D02*
X0219334Y0079826D01*
X0220382Y0079826D01*
X0220905Y0079302D01*
X0220905Y0077207D01*
X0220382Y0076683D01*
X0219334Y0076683D01*
X0218810Y0077207D01*
X0218810Y0078254D01*
X0219858Y0078254D01*
X0219858Y0086693D02*
X0218810Y0087741D01*
X0218810Y0089836D01*
X0217554Y0089312D02*
X0217554Y0087217D01*
X0217030Y0086693D01*
X0215982Y0086693D01*
X0215459Y0087217D01*
X0214202Y0087217D02*
X0213678Y0086693D01*
X0212631Y0086693D01*
X0212107Y0087217D01*
X0214202Y0087217D02*
X0214202Y0089312D01*
X0213678Y0089836D01*
X0212631Y0089836D01*
X0212107Y0089312D01*
X0215459Y0089312D02*
X0215982Y0089836D01*
X0217030Y0089836D01*
X0217554Y0089312D01*
X0220905Y0089836D02*
X0220905Y0087741D01*
X0219858Y0086693D01*
X0216506Y0096703D02*
X0216506Y0099846D01*
X0215459Y0099846D02*
X0217554Y0099846D01*
X0214202Y0099846D02*
X0212107Y0096703D01*
X0214202Y0096703D02*
X0212107Y0099846D01*
X0212107Y0106713D02*
X0214202Y0109856D01*
X0215459Y0109332D02*
X0215459Y0108284D01*
X0215982Y0107761D01*
X0217554Y0107761D01*
X0216506Y0107761D02*
X0215459Y0106713D01*
X0214202Y0106713D02*
X0212107Y0109856D01*
X0215459Y0109332D02*
X0215982Y0109856D01*
X0217554Y0109856D01*
X0217554Y0106713D01*
X0216506Y0116723D02*
X0216506Y0119866D01*
X0215459Y0119866D02*
X0217554Y0119866D01*
X0218810Y0119342D02*
X0218810Y0117247D01*
X0219334Y0116723D01*
X0220905Y0116723D01*
X0220905Y0119866D01*
X0219334Y0119866D01*
X0218810Y0119342D01*
X0214202Y0119866D02*
X0214202Y0116723D01*
X0214202Y0117771D02*
X0212631Y0117771D01*
X0212107Y0118294D01*
X0212107Y0119342D01*
X0212631Y0119866D01*
X0214202Y0119866D01*
X0213155Y0117771D02*
X0212107Y0116723D01*
X0208350Y0146683D02*
X0206779Y0146683D01*
X0206255Y0147207D01*
X0206255Y0149302D01*
X0206779Y0149826D01*
X0208350Y0149826D01*
X0208350Y0146683D01*
X0204999Y0147207D02*
X0204999Y0148254D01*
X0203427Y0148254D01*
X0202904Y0147731D01*
X0202904Y0147207D01*
X0203427Y0146683D01*
X0204475Y0146683D01*
X0204999Y0147207D01*
X0204999Y0148254D02*
X0203951Y0149302D01*
X0202904Y0149826D01*
X0198295Y0149826D02*
X0198295Y0146683D01*
X0196724Y0146683D01*
X0196200Y0147207D01*
X0196200Y0149302D01*
X0196724Y0149826D01*
X0198295Y0149826D01*
X0194944Y0149826D02*
X0192849Y0149826D01*
X0192849Y0149302D01*
X0194944Y0147207D01*
X0194944Y0146683D01*
X0188240Y0146683D02*
X0188240Y0149826D01*
X0186669Y0149826D01*
X0186145Y0149302D01*
X0186145Y0147207D01*
X0186669Y0146683D01*
X0188240Y0146683D01*
X0184889Y0147207D02*
X0184889Y0147731D01*
X0184365Y0148254D01*
X0183317Y0148254D01*
X0182794Y0147731D01*
X0182794Y0147207D01*
X0183317Y0146683D01*
X0184365Y0146683D01*
X0184889Y0147207D01*
X0184365Y0148254D02*
X0184889Y0148778D01*
X0184889Y0149302D01*
X0184365Y0149826D01*
X0183317Y0149826D01*
X0182794Y0149302D01*
X0182794Y0148778D01*
X0183317Y0148254D01*
X0178185Y0146683D02*
X0176614Y0146683D01*
X0176090Y0147207D01*
X0176090Y0149302D01*
X0176614Y0149826D01*
X0178185Y0149826D01*
X0178185Y0146683D01*
X0174834Y0147207D02*
X0174310Y0146683D01*
X0173262Y0146683D01*
X0172739Y0147207D01*
X0172739Y0149302D01*
X0173262Y0149826D01*
X0174310Y0149826D01*
X0174834Y0149302D01*
X0174834Y0148778D01*
X0174310Y0148254D01*
X0172739Y0148254D01*
X0168130Y0148778D02*
X0167083Y0149826D01*
X0167083Y0146683D01*
X0168130Y0146683D02*
X0166035Y0146683D01*
X0164779Y0147207D02*
X0162684Y0149302D01*
X0162684Y0147207D01*
X0163207Y0146683D01*
X0164255Y0146683D01*
X0164779Y0147207D01*
X0164779Y0149302D01*
X0164255Y0149826D01*
X0163207Y0149826D01*
X0162684Y0149302D01*
X0158075Y0148778D02*
X0157028Y0149826D01*
X0157028Y0146683D01*
X0158075Y0146683D02*
X0155980Y0146683D01*
X0154724Y0146683D02*
X0152629Y0146683D01*
X0153676Y0146683D02*
X0153676Y0149826D01*
X0154724Y0148778D01*
X0148020Y0148778D02*
X0146973Y0149826D01*
X0146973Y0146683D01*
X0148020Y0146683D02*
X0145925Y0146683D01*
X0144669Y0146683D02*
X0142574Y0148778D01*
X0142574Y0149302D01*
X0143098Y0149826D01*
X0144145Y0149826D01*
X0144669Y0149302D01*
X0144669Y0146683D02*
X0142574Y0146683D01*
X0137966Y0146683D02*
X0135870Y0146683D01*
X0136918Y0146683D02*
X0136918Y0149826D01*
X0137966Y0148778D01*
X0134614Y0149302D02*
X0134090Y0149826D01*
X0133043Y0149826D01*
X0132519Y0149302D01*
X0132519Y0148778D01*
X0133043Y0148254D01*
X0132519Y0147731D01*
X0132519Y0147207D01*
X0133043Y0146683D01*
X0134090Y0146683D01*
X0134614Y0147207D01*
X0133566Y0148254D02*
X0133043Y0148254D01*
X0127911Y0148778D02*
X0126863Y0149826D01*
X0126863Y0146683D01*
X0127911Y0146683D02*
X0125815Y0146683D01*
X0124559Y0148254D02*
X0122464Y0148254D01*
X0122988Y0146683D02*
X0122988Y0149826D01*
X0124559Y0148254D01*
X0117856Y0147731D02*
X0116284Y0147731D01*
X0115760Y0148254D01*
X0115760Y0149302D01*
X0116284Y0149826D01*
X0117856Y0149826D01*
X0117856Y0146683D01*
X0116808Y0147731D02*
X0115760Y0146683D01*
X0113456Y0146683D02*
X0113456Y0149826D01*
X0112409Y0149826D02*
X0114504Y0149826D01*
X0107801Y0149302D02*
X0107801Y0147207D01*
X0107277Y0146683D01*
X0106229Y0146683D01*
X0105705Y0147207D01*
X0105705Y0148254D01*
X0106753Y0148254D01*
X0107801Y0149302D02*
X0107277Y0149826D01*
X0106229Y0149826D01*
X0105705Y0149302D01*
X0104449Y0149826D02*
X0102354Y0146683D01*
X0102354Y0149826D01*
X0104449Y0149826D02*
X0104449Y0146683D01*
X0097746Y0147731D02*
X0097746Y0149826D01*
X0097746Y0147731D02*
X0096698Y0146683D01*
X0095650Y0147731D01*
X0095650Y0149826D01*
X0094394Y0149302D02*
X0094394Y0147207D01*
X0093870Y0146683D01*
X0092823Y0146683D01*
X0092299Y0147207D01*
X0092299Y0149302D02*
X0092823Y0149826D01*
X0093870Y0149826D01*
X0094394Y0149302D01*
X0087691Y0149826D02*
X0087691Y0146683D01*
X0087691Y0147731D02*
X0086119Y0147731D01*
X0085595Y0148254D01*
X0085595Y0149302D01*
X0086119Y0149826D01*
X0087691Y0149826D01*
X0086643Y0147731D02*
X0085595Y0146683D01*
X0084339Y0146683D02*
X0084339Y0148778D01*
X0083291Y0149826D01*
X0082244Y0148778D01*
X0082244Y0146683D01*
X0082244Y0148254D02*
X0084339Y0148254D01*
X0077636Y0147731D02*
X0076588Y0146683D01*
X0075541Y0147731D01*
X0075541Y0149826D01*
X0074284Y0149302D02*
X0074284Y0147207D01*
X0073760Y0146683D01*
X0072713Y0146683D01*
X0072189Y0147207D01*
X0072189Y0149302D02*
X0072713Y0149826D01*
X0073760Y0149826D01*
X0074284Y0149302D01*
X0077636Y0149826D02*
X0077636Y0147731D01*
X0067581Y0148778D02*
X0066533Y0149826D01*
X0066533Y0146683D01*
X0065486Y0146683D02*
X0067581Y0146683D01*
X0064229Y0147207D02*
X0063705Y0146683D01*
X0062658Y0146683D01*
X0062134Y0147207D01*
X0062134Y0148254D01*
X0062658Y0148778D01*
X0063181Y0148778D01*
X0064229Y0148254D01*
X0064229Y0149826D01*
X0062134Y0149826D01*
X0057526Y0148778D02*
X0056478Y0149826D01*
X0056478Y0146683D01*
X0055431Y0146683D02*
X0057526Y0146683D01*
X0054174Y0147207D02*
X0054174Y0148254D01*
X0052603Y0148254D01*
X0052079Y0147731D01*
X0052079Y0147207D01*
X0052603Y0146683D01*
X0053650Y0146683D01*
X0054174Y0147207D01*
X0054174Y0148254D02*
X0053126Y0149302D01*
X0052079Y0149826D01*
X0047471Y0148778D02*
X0046423Y0149826D01*
X0046423Y0146683D01*
X0045376Y0146683D02*
X0047471Y0146683D01*
X0044119Y0146683D02*
X0044119Y0147207D01*
X0042024Y0149302D01*
X0042024Y0149826D01*
X0044119Y0149826D01*
X0037416Y0148778D02*
X0036368Y0149826D01*
X0036368Y0146683D01*
X0035321Y0146683D02*
X0037416Y0146683D01*
X0034064Y0147207D02*
X0034064Y0147731D01*
X0033540Y0148254D01*
X0032493Y0148254D01*
X0031969Y0147731D01*
X0031969Y0147207D01*
X0032493Y0146683D01*
X0033540Y0146683D01*
X0034064Y0147207D01*
X0033540Y0148254D02*
X0034064Y0148778D01*
X0034064Y0149302D01*
X0033540Y0149826D01*
X0032493Y0149826D01*
X0031969Y0149302D01*
X0031969Y0148778D01*
X0032493Y0148254D01*
X0027361Y0148778D02*
X0026313Y0149826D01*
X0026313Y0146683D01*
X0025266Y0146683D02*
X0027361Y0146683D01*
X0024009Y0147207D02*
X0023485Y0146683D01*
X0022438Y0146683D01*
X0021914Y0147207D01*
X0021914Y0149302D01*
X0022438Y0149826D01*
X0023485Y0149826D01*
X0024009Y0149302D01*
X0024009Y0148778D01*
X0023485Y0148254D01*
X0021914Y0148254D01*
X0017306Y0149302D02*
X0016782Y0149826D01*
X0015734Y0149826D01*
X0015211Y0149302D01*
X0015211Y0148778D01*
X0017306Y0146683D01*
X0015211Y0146683D01*
X0013954Y0147207D02*
X0011859Y0149302D01*
X0011859Y0147207D01*
X0012383Y0146683D01*
X0013430Y0146683D01*
X0013954Y0147207D01*
X0013954Y0149302D01*
X0013430Y0149826D01*
X0012383Y0149826D01*
X0011859Y0149302D01*
X0011859Y0052326D02*
X0011859Y0049183D01*
X0125815Y0050754D02*
X0127911Y0050754D01*
X0142574Y0052326D02*
X0143621Y0051802D01*
D12*
X0144117Y0067883D02*
X0142315Y0067883D01*
X0142315Y0070285D01*
X0141034Y0070285D02*
X0141034Y0067883D01*
X0141034Y0069084D02*
X0139833Y0070285D01*
X0139233Y0070285D01*
X0137364Y0070285D02*
X0136163Y0070285D01*
X0135563Y0069685D01*
X0135563Y0067883D01*
X0137364Y0067883D01*
X0137965Y0068484D01*
X0137364Y0069084D01*
X0135563Y0069084D01*
X0134282Y0067883D02*
X0133081Y0067883D01*
X0133681Y0067883D02*
X0133681Y0071486D01*
X0134282Y0071486D01*
X0131826Y0070285D02*
X0130625Y0070285D01*
X0131226Y0070886D02*
X0131226Y0068484D01*
X0130625Y0067883D01*
X0129371Y0068484D02*
X0129371Y0069685D01*
X0128770Y0070285D01*
X0127569Y0070285D01*
X0126969Y0069685D01*
X0126969Y0068484D01*
X0127569Y0067883D01*
X0128770Y0067883D01*
X0129371Y0068484D01*
X0122005Y0069084D02*
X0122005Y0070285D01*
X0120804Y0071486D01*
X0119549Y0071486D02*
X0117147Y0071486D01*
X0118348Y0071486D02*
X0118348Y0067883D01*
X0120804Y0067883D02*
X0122005Y0069084D01*
X0115866Y0067883D02*
X0114665Y0067883D01*
X0115265Y0067883D02*
X0115265Y0071486D01*
X0114665Y0071486D02*
X0115866Y0071486D01*
X0113411Y0071486D02*
X0112210Y0070285D01*
X0112210Y0069084D01*
X0113411Y0067883D01*
X0107272Y0069685D02*
X0104870Y0069685D01*
X0099906Y0070285D02*
X0099906Y0070886D01*
X0099305Y0071486D01*
X0098104Y0071486D01*
X0097504Y0070886D01*
X0098104Y0069685D02*
X0097504Y0069084D01*
X0097504Y0068484D01*
X0098104Y0067883D01*
X0099305Y0067883D01*
X0099906Y0068484D01*
X0099305Y0069685D02*
X0098104Y0069685D01*
X0099305Y0069685D02*
X0099906Y0070285D01*
X0096223Y0070285D02*
X0096223Y0068484D01*
X0095622Y0067883D01*
X0095022Y0068484D01*
X0094421Y0067883D01*
X0093820Y0068484D01*
X0093820Y0070285D01*
X0092539Y0070285D02*
X0091939Y0070285D01*
X0091939Y0067883D01*
X0092539Y0067883D02*
X0091338Y0067883D01*
X0089483Y0068484D02*
X0088883Y0067883D01*
X0089483Y0068484D02*
X0089483Y0070886D01*
X0090084Y0070285D02*
X0088883Y0070285D01*
X0087629Y0070285D02*
X0085227Y0070285D01*
X0087629Y0067883D01*
X0085227Y0067883D01*
X0083945Y0068484D02*
X0083945Y0069685D01*
X0083345Y0070285D01*
X0082144Y0070285D01*
X0081543Y0069685D01*
X0081543Y0069084D01*
X0083945Y0069084D01*
X0083945Y0068484D02*
X0083345Y0067883D01*
X0082144Y0067883D01*
X0080262Y0067883D02*
X0080262Y0070285D01*
X0080262Y0069084D02*
X0079061Y0070285D01*
X0078461Y0070285D01*
X0077193Y0071486D02*
X0076592Y0071486D01*
X0076592Y0067883D01*
X0075992Y0067883D02*
X0077193Y0067883D01*
X0074738Y0068484D02*
X0074137Y0069084D01*
X0072336Y0069084D01*
X0072336Y0069685D02*
X0072336Y0067883D01*
X0074137Y0067883D01*
X0074738Y0068484D01*
X0074137Y0070285D02*
X0072936Y0070285D01*
X0072336Y0069685D01*
X0071054Y0070285D02*
X0069253Y0070285D01*
X0068652Y0069685D01*
X0068652Y0067883D01*
X0067371Y0068484D02*
X0067371Y0069685D01*
X0066771Y0070285D01*
X0064969Y0070285D01*
X0064969Y0071486D02*
X0064969Y0067883D01*
X0066771Y0067883D01*
X0067371Y0068484D01*
X0071054Y0067883D02*
X0071054Y0070285D01*
X0070454Y0074883D02*
X0068652Y0074883D01*
X0068652Y0077285D01*
X0067371Y0077285D02*
X0066170Y0077285D01*
X0066771Y0077886D02*
X0066771Y0075484D01*
X0066170Y0074883D01*
X0064916Y0075484D02*
X0064315Y0074883D01*
X0063114Y0074883D01*
X0062514Y0075484D01*
X0062514Y0076685D01*
X0063114Y0077285D01*
X0064315Y0077285D01*
X0064916Y0076685D01*
X0064916Y0075484D01*
X0061233Y0074883D02*
X0061233Y0077285D01*
X0060632Y0077285D01*
X0060032Y0076685D01*
X0059431Y0077285D01*
X0058831Y0076685D01*
X0058831Y0074883D01*
X0060032Y0074883D02*
X0060032Y0076685D01*
X0057550Y0075484D02*
X0056949Y0074883D01*
X0055147Y0074883D01*
X0055147Y0076685D01*
X0055748Y0077285D01*
X0056949Y0077285D01*
X0056949Y0076084D02*
X0055147Y0076084D01*
X0053866Y0074883D02*
X0051464Y0074883D01*
X0050183Y0074883D02*
X0048982Y0074883D01*
X0049583Y0074883D02*
X0049583Y0077285D01*
X0050183Y0077285D01*
X0051464Y0077285D02*
X0053866Y0074883D01*
X0053866Y0077285D02*
X0051464Y0077285D01*
X0049583Y0078486D02*
X0049583Y0079087D01*
X0047728Y0076685D02*
X0047127Y0077285D01*
X0045926Y0077285D01*
X0045326Y0076685D01*
X0045326Y0075484D01*
X0045926Y0074883D01*
X0047127Y0074883D01*
X0047728Y0075484D01*
X0047728Y0076685D01*
X0044045Y0077285D02*
X0044045Y0074883D01*
X0041643Y0074883D02*
X0041643Y0076685D01*
X0042243Y0077285D01*
X0044045Y0077285D01*
X0040362Y0076685D02*
X0039761Y0077285D01*
X0038560Y0077285D01*
X0037959Y0076685D01*
X0037959Y0076084D01*
X0040362Y0076084D01*
X0040362Y0075484D02*
X0040362Y0076685D01*
X0040362Y0075484D02*
X0039761Y0074883D01*
X0038560Y0074883D01*
X0032995Y0074883D02*
X0031194Y0074883D01*
X0030593Y0075484D01*
X0031194Y0076084D01*
X0032395Y0076084D01*
X0032995Y0076685D01*
X0032395Y0077285D01*
X0030593Y0077285D01*
X0028712Y0077285D02*
X0027511Y0077285D01*
X0026910Y0076685D01*
X0026910Y0074883D01*
X0028712Y0074883D01*
X0029312Y0075484D01*
X0028712Y0076084D01*
X0026910Y0076084D01*
X0025629Y0075484D02*
X0025028Y0074883D01*
X0023227Y0074883D01*
X0023227Y0074283D02*
X0023227Y0077285D01*
X0025028Y0077285D01*
X0025629Y0076685D01*
X0025629Y0075484D01*
X0023827Y0073682D02*
X0023227Y0074283D01*
X0023827Y0073682D02*
X0024428Y0073682D01*
X0021946Y0074883D02*
X0020745Y0074883D01*
X0021345Y0074883D02*
X0021345Y0078486D01*
X0021946Y0078486D01*
X0056949Y0076084D02*
X0057550Y0075484D01*
X0070454Y0074883D02*
X0071054Y0075484D01*
X0071054Y0077285D01*
X0072335Y0077285D02*
X0072335Y0074883D01*
X0072335Y0076685D02*
X0074738Y0076685D01*
X0074738Y0077285D02*
X0074738Y0074883D01*
X0074738Y0077285D02*
X0073537Y0078486D01*
X0072335Y0077285D01*
X0079702Y0076084D02*
X0080903Y0074883D01*
X0081503Y0074883D01*
X0082104Y0075484D01*
X0082104Y0076084D01*
X0080903Y0077285D01*
X0080903Y0077886D01*
X0081503Y0078486D01*
X0082104Y0077886D01*
X0082104Y0077285D01*
X0079702Y0074883D01*
X0087041Y0074883D02*
X0088242Y0074883D01*
X0087642Y0074883D02*
X0087642Y0077285D01*
X0088242Y0077285D01*
X0087642Y0078486D02*
X0087642Y0079087D01*
X0089523Y0076685D02*
X0090124Y0077285D01*
X0090725Y0076685D01*
X0090725Y0074883D01*
X0091926Y0074883D02*
X0091926Y0077285D01*
X0091325Y0077285D01*
X0090725Y0076685D01*
X0089523Y0076685D02*
X0089523Y0074883D01*
X0093207Y0076084D02*
X0095609Y0076084D01*
X0095609Y0075484D02*
X0095609Y0076685D01*
X0095008Y0077285D01*
X0093807Y0077285D01*
X0093207Y0076685D01*
X0093207Y0076084D01*
X0093807Y0074883D02*
X0095008Y0074883D01*
X0095609Y0075484D01*
X0096863Y0074883D02*
X0097464Y0075484D01*
X0097464Y0077886D01*
X0098064Y0077285D02*
X0096863Y0077285D01*
X0099345Y0077285D02*
X0101147Y0077285D01*
X0101747Y0076685D01*
X0101147Y0076084D01*
X0099946Y0076084D01*
X0099345Y0075484D01*
X0099946Y0074883D01*
X0101747Y0074883D01*
X0103002Y0074883D02*
X0104203Y0074883D01*
X0103602Y0074883D02*
X0103602Y0077285D01*
X0104203Y0077285D01*
X0103602Y0078486D02*
X0103602Y0079087D01*
X0105484Y0077886D02*
X0106084Y0078486D01*
X0107285Y0078486D01*
X0107886Y0077886D01*
X0107886Y0077285D01*
X0107285Y0076685D01*
X0106084Y0076685D01*
X0105484Y0076084D01*
X0105484Y0075484D01*
X0106084Y0074883D01*
X0107285Y0074883D01*
X0107886Y0075484D01*
X0112850Y0074883D02*
X0115252Y0077285D01*
X0117107Y0077285D02*
X0117107Y0074883D01*
X0116507Y0074883D02*
X0117708Y0074883D01*
X0118989Y0074883D02*
X0118989Y0076685D01*
X0119589Y0077285D01*
X0121391Y0077285D01*
X0121391Y0074883D01*
X0122672Y0076084D02*
X0125074Y0076084D01*
X0125074Y0075484D02*
X0125074Y0076685D01*
X0124473Y0077285D01*
X0123272Y0077285D01*
X0122672Y0076685D01*
X0122672Y0076084D01*
X0123272Y0074883D02*
X0124473Y0074883D01*
X0125074Y0075484D01*
X0126355Y0075484D02*
X0126355Y0076685D01*
X0126955Y0077285D01*
X0128156Y0077285D01*
X0128757Y0076685D01*
X0128757Y0075484D01*
X0128156Y0074883D01*
X0126955Y0074883D01*
X0126355Y0075484D01*
X0130038Y0074883D02*
X0130038Y0076685D01*
X0130639Y0077285D01*
X0131840Y0077285D01*
X0132440Y0076685D01*
X0133721Y0076685D02*
X0133721Y0077886D01*
X0134322Y0078486D01*
X0136123Y0078486D01*
X0136123Y0074883D01*
X0136123Y0076084D02*
X0134322Y0076084D01*
X0133721Y0076685D01*
X0132440Y0078486D02*
X0132440Y0074883D01*
X0141061Y0076084D02*
X0141061Y0077285D01*
X0142262Y0078486D01*
X0143543Y0077285D02*
X0145344Y0077285D01*
X0145945Y0076685D01*
X0145945Y0075484D01*
X0145344Y0074883D01*
X0143543Y0074883D01*
X0142262Y0074883D02*
X0141061Y0076084D01*
X0147199Y0074883D02*
X0148400Y0076084D01*
X0148400Y0077285D01*
X0147199Y0078486D01*
X0145998Y0071486D02*
X0145998Y0067883D01*
X0144717Y0068484D02*
X0144717Y0070285D01*
X0145998Y0071486D02*
X0147199Y0070285D01*
X0148400Y0071486D01*
X0148400Y0067883D01*
X0144717Y0068484D02*
X0144117Y0067883D01*
X0117708Y0077285D02*
X0117107Y0077285D01*
X0117107Y0078486D02*
X0117107Y0079087D01*
X0115252Y0074883D02*
X0112850Y0077285D01*
X0091939Y0072087D02*
X0091939Y0071486D01*
D13*
X0005588Y0108933D02*
X0005590Y0109081D01*
X0005596Y0109229D01*
X0005606Y0109377D01*
X0005620Y0109524D01*
X0005638Y0109671D01*
X0005659Y0109817D01*
X0005685Y0109963D01*
X0005715Y0110108D01*
X0005748Y0110252D01*
X0005786Y0110395D01*
X0005827Y0110537D01*
X0005872Y0110678D01*
X0005920Y0110818D01*
X0005973Y0110957D01*
X0006029Y0111094D01*
X0006089Y0111229D01*
X0006152Y0111363D01*
X0006219Y0111495D01*
X0006290Y0111625D01*
X0006364Y0111753D01*
X0006441Y0111879D01*
X0006522Y0112003D01*
X0006606Y0112125D01*
X0006693Y0112244D01*
X0006784Y0112361D01*
X0006878Y0112476D01*
X0006974Y0112588D01*
X0007074Y0112698D01*
X0007176Y0112804D01*
X0007282Y0112908D01*
X0007390Y0113009D01*
X0007501Y0113107D01*
X0007614Y0113203D01*
X0007730Y0113295D01*
X0007848Y0113384D01*
X0007969Y0113469D01*
X0008092Y0113552D01*
X0008217Y0113631D01*
X0008344Y0113707D01*
X0008473Y0113779D01*
X0008604Y0113848D01*
X0008737Y0113913D01*
X0008872Y0113974D01*
X0009008Y0114032D01*
X0009145Y0114087D01*
X0009284Y0114137D01*
X0009425Y0114184D01*
X0009566Y0114227D01*
X0009709Y0114267D01*
X0009853Y0114302D01*
X0009997Y0114334D01*
X0010143Y0114361D01*
X0010289Y0114385D01*
X0010436Y0114405D01*
X0010583Y0114421D01*
X0010730Y0114433D01*
X0010878Y0114441D01*
X0011026Y0114445D01*
X0011174Y0114445D01*
X0011322Y0114441D01*
X0011470Y0114433D01*
X0011617Y0114421D01*
X0011764Y0114405D01*
X0011911Y0114385D01*
X0012057Y0114361D01*
X0012203Y0114334D01*
X0012347Y0114302D01*
X0012491Y0114267D01*
X0012634Y0114227D01*
X0012775Y0114184D01*
X0012916Y0114137D01*
X0013055Y0114087D01*
X0013192Y0114032D01*
X0013328Y0113974D01*
X0013463Y0113913D01*
X0013596Y0113848D01*
X0013727Y0113779D01*
X0013856Y0113707D01*
X0013983Y0113631D01*
X0014108Y0113552D01*
X0014231Y0113469D01*
X0014352Y0113384D01*
X0014470Y0113295D01*
X0014586Y0113203D01*
X0014699Y0113107D01*
X0014810Y0113009D01*
X0014918Y0112908D01*
X0015024Y0112804D01*
X0015126Y0112698D01*
X0015226Y0112588D01*
X0015322Y0112476D01*
X0015416Y0112361D01*
X0015507Y0112244D01*
X0015594Y0112125D01*
X0015678Y0112003D01*
X0015759Y0111879D01*
X0015836Y0111753D01*
X0015910Y0111625D01*
X0015981Y0111495D01*
X0016048Y0111363D01*
X0016111Y0111229D01*
X0016171Y0111094D01*
X0016227Y0110957D01*
X0016280Y0110818D01*
X0016328Y0110678D01*
X0016373Y0110537D01*
X0016414Y0110395D01*
X0016452Y0110252D01*
X0016485Y0110108D01*
X0016515Y0109963D01*
X0016541Y0109817D01*
X0016562Y0109671D01*
X0016580Y0109524D01*
X0016594Y0109377D01*
X0016604Y0109229D01*
X0016610Y0109081D01*
X0016612Y0108933D01*
X0016610Y0108785D01*
X0016604Y0108637D01*
X0016594Y0108489D01*
X0016580Y0108342D01*
X0016562Y0108195D01*
X0016541Y0108049D01*
X0016515Y0107903D01*
X0016485Y0107758D01*
X0016452Y0107614D01*
X0016414Y0107471D01*
X0016373Y0107329D01*
X0016328Y0107188D01*
X0016280Y0107048D01*
X0016227Y0106909D01*
X0016171Y0106772D01*
X0016111Y0106637D01*
X0016048Y0106503D01*
X0015981Y0106371D01*
X0015910Y0106241D01*
X0015836Y0106113D01*
X0015759Y0105987D01*
X0015678Y0105863D01*
X0015594Y0105741D01*
X0015507Y0105622D01*
X0015416Y0105505D01*
X0015322Y0105390D01*
X0015226Y0105278D01*
X0015126Y0105168D01*
X0015024Y0105062D01*
X0014918Y0104958D01*
X0014810Y0104857D01*
X0014699Y0104759D01*
X0014586Y0104663D01*
X0014470Y0104571D01*
X0014352Y0104482D01*
X0014231Y0104397D01*
X0014108Y0104314D01*
X0013983Y0104235D01*
X0013856Y0104159D01*
X0013727Y0104087D01*
X0013596Y0104018D01*
X0013463Y0103953D01*
X0013328Y0103892D01*
X0013192Y0103834D01*
X0013055Y0103779D01*
X0012916Y0103729D01*
X0012775Y0103682D01*
X0012634Y0103639D01*
X0012491Y0103599D01*
X0012347Y0103564D01*
X0012203Y0103532D01*
X0012057Y0103505D01*
X0011911Y0103481D01*
X0011764Y0103461D01*
X0011617Y0103445D01*
X0011470Y0103433D01*
X0011322Y0103425D01*
X0011174Y0103421D01*
X0011026Y0103421D01*
X0010878Y0103425D01*
X0010730Y0103433D01*
X0010583Y0103445D01*
X0010436Y0103461D01*
X0010289Y0103481D01*
X0010143Y0103505D01*
X0009997Y0103532D01*
X0009853Y0103564D01*
X0009709Y0103599D01*
X0009566Y0103639D01*
X0009425Y0103682D01*
X0009284Y0103729D01*
X0009145Y0103779D01*
X0009008Y0103834D01*
X0008872Y0103892D01*
X0008737Y0103953D01*
X0008604Y0104018D01*
X0008473Y0104087D01*
X0008344Y0104159D01*
X0008217Y0104235D01*
X0008092Y0104314D01*
X0007969Y0104397D01*
X0007848Y0104482D01*
X0007730Y0104571D01*
X0007614Y0104663D01*
X0007501Y0104759D01*
X0007390Y0104857D01*
X0007282Y0104958D01*
X0007176Y0105062D01*
X0007074Y0105168D01*
X0006974Y0105278D01*
X0006878Y0105390D01*
X0006784Y0105505D01*
X0006693Y0105622D01*
X0006606Y0105741D01*
X0006522Y0105863D01*
X0006441Y0105987D01*
X0006364Y0106113D01*
X0006290Y0106241D01*
X0006219Y0106371D01*
X0006152Y0106503D01*
X0006089Y0106637D01*
X0006029Y0106772D01*
X0005973Y0106909D01*
X0005920Y0107048D01*
X0005872Y0107188D01*
X0005827Y0107329D01*
X0005786Y0107471D01*
X0005748Y0107614D01*
X0005715Y0107758D01*
X0005685Y0107903D01*
X0005659Y0108049D01*
X0005638Y0108195D01*
X0005620Y0108342D01*
X0005606Y0108489D01*
X0005596Y0108637D01*
X0005590Y0108785D01*
X0005588Y0108933D01*
X0209338Y0130183D02*
X0209340Y0130331D01*
X0209346Y0130479D01*
X0209356Y0130627D01*
X0209370Y0130774D01*
X0209388Y0130921D01*
X0209409Y0131067D01*
X0209435Y0131213D01*
X0209465Y0131358D01*
X0209498Y0131502D01*
X0209536Y0131645D01*
X0209577Y0131787D01*
X0209622Y0131928D01*
X0209670Y0132068D01*
X0209723Y0132207D01*
X0209779Y0132344D01*
X0209839Y0132479D01*
X0209902Y0132613D01*
X0209969Y0132745D01*
X0210040Y0132875D01*
X0210114Y0133003D01*
X0210191Y0133129D01*
X0210272Y0133253D01*
X0210356Y0133375D01*
X0210443Y0133494D01*
X0210534Y0133611D01*
X0210628Y0133726D01*
X0210724Y0133838D01*
X0210824Y0133948D01*
X0210926Y0134054D01*
X0211032Y0134158D01*
X0211140Y0134259D01*
X0211251Y0134357D01*
X0211364Y0134453D01*
X0211480Y0134545D01*
X0211598Y0134634D01*
X0211719Y0134719D01*
X0211842Y0134802D01*
X0211967Y0134881D01*
X0212094Y0134957D01*
X0212223Y0135029D01*
X0212354Y0135098D01*
X0212487Y0135163D01*
X0212622Y0135224D01*
X0212758Y0135282D01*
X0212895Y0135337D01*
X0213034Y0135387D01*
X0213175Y0135434D01*
X0213316Y0135477D01*
X0213459Y0135517D01*
X0213603Y0135552D01*
X0213747Y0135584D01*
X0213893Y0135611D01*
X0214039Y0135635D01*
X0214186Y0135655D01*
X0214333Y0135671D01*
X0214480Y0135683D01*
X0214628Y0135691D01*
X0214776Y0135695D01*
X0214924Y0135695D01*
X0215072Y0135691D01*
X0215220Y0135683D01*
X0215367Y0135671D01*
X0215514Y0135655D01*
X0215661Y0135635D01*
X0215807Y0135611D01*
X0215953Y0135584D01*
X0216097Y0135552D01*
X0216241Y0135517D01*
X0216384Y0135477D01*
X0216525Y0135434D01*
X0216666Y0135387D01*
X0216805Y0135337D01*
X0216942Y0135282D01*
X0217078Y0135224D01*
X0217213Y0135163D01*
X0217346Y0135098D01*
X0217477Y0135029D01*
X0217606Y0134957D01*
X0217733Y0134881D01*
X0217858Y0134802D01*
X0217981Y0134719D01*
X0218102Y0134634D01*
X0218220Y0134545D01*
X0218336Y0134453D01*
X0218449Y0134357D01*
X0218560Y0134259D01*
X0218668Y0134158D01*
X0218774Y0134054D01*
X0218876Y0133948D01*
X0218976Y0133838D01*
X0219072Y0133726D01*
X0219166Y0133611D01*
X0219257Y0133494D01*
X0219344Y0133375D01*
X0219428Y0133253D01*
X0219509Y0133129D01*
X0219586Y0133003D01*
X0219660Y0132875D01*
X0219731Y0132745D01*
X0219798Y0132613D01*
X0219861Y0132479D01*
X0219921Y0132344D01*
X0219977Y0132207D01*
X0220030Y0132068D01*
X0220078Y0131928D01*
X0220123Y0131787D01*
X0220164Y0131645D01*
X0220202Y0131502D01*
X0220235Y0131358D01*
X0220265Y0131213D01*
X0220291Y0131067D01*
X0220312Y0130921D01*
X0220330Y0130774D01*
X0220344Y0130627D01*
X0220354Y0130479D01*
X0220360Y0130331D01*
X0220362Y0130183D01*
X0220360Y0130035D01*
X0220354Y0129887D01*
X0220344Y0129739D01*
X0220330Y0129592D01*
X0220312Y0129445D01*
X0220291Y0129299D01*
X0220265Y0129153D01*
X0220235Y0129008D01*
X0220202Y0128864D01*
X0220164Y0128721D01*
X0220123Y0128579D01*
X0220078Y0128438D01*
X0220030Y0128298D01*
X0219977Y0128159D01*
X0219921Y0128022D01*
X0219861Y0127887D01*
X0219798Y0127753D01*
X0219731Y0127621D01*
X0219660Y0127491D01*
X0219586Y0127363D01*
X0219509Y0127237D01*
X0219428Y0127113D01*
X0219344Y0126991D01*
X0219257Y0126872D01*
X0219166Y0126755D01*
X0219072Y0126640D01*
X0218976Y0126528D01*
X0218876Y0126418D01*
X0218774Y0126312D01*
X0218668Y0126208D01*
X0218560Y0126107D01*
X0218449Y0126009D01*
X0218336Y0125913D01*
X0218220Y0125821D01*
X0218102Y0125732D01*
X0217981Y0125647D01*
X0217858Y0125564D01*
X0217733Y0125485D01*
X0217606Y0125409D01*
X0217477Y0125337D01*
X0217346Y0125268D01*
X0217213Y0125203D01*
X0217078Y0125142D01*
X0216942Y0125084D01*
X0216805Y0125029D01*
X0216666Y0124979D01*
X0216525Y0124932D01*
X0216384Y0124889D01*
X0216241Y0124849D01*
X0216097Y0124814D01*
X0215953Y0124782D01*
X0215807Y0124755D01*
X0215661Y0124731D01*
X0215514Y0124711D01*
X0215367Y0124695D01*
X0215220Y0124683D01*
X0215072Y0124675D01*
X0214924Y0124671D01*
X0214776Y0124671D01*
X0214628Y0124675D01*
X0214480Y0124683D01*
X0214333Y0124695D01*
X0214186Y0124711D01*
X0214039Y0124731D01*
X0213893Y0124755D01*
X0213747Y0124782D01*
X0213603Y0124814D01*
X0213459Y0124849D01*
X0213316Y0124889D01*
X0213175Y0124932D01*
X0213034Y0124979D01*
X0212895Y0125029D01*
X0212758Y0125084D01*
X0212622Y0125142D01*
X0212487Y0125203D01*
X0212354Y0125268D01*
X0212223Y0125337D01*
X0212094Y0125409D01*
X0211967Y0125485D01*
X0211842Y0125564D01*
X0211719Y0125647D01*
X0211598Y0125732D01*
X0211480Y0125821D01*
X0211364Y0125913D01*
X0211251Y0126009D01*
X0211140Y0126107D01*
X0211032Y0126208D01*
X0210926Y0126312D01*
X0210824Y0126418D01*
X0210724Y0126528D01*
X0210628Y0126640D01*
X0210534Y0126755D01*
X0210443Y0126872D01*
X0210356Y0126991D01*
X0210272Y0127113D01*
X0210191Y0127237D01*
X0210114Y0127363D01*
X0210040Y0127491D01*
X0209969Y0127621D01*
X0209902Y0127753D01*
X0209839Y0127887D01*
X0209779Y0128022D01*
X0209723Y0128159D01*
X0209670Y0128298D01*
X0209622Y0128438D01*
X0209577Y0128579D01*
X0209536Y0128721D01*
X0209498Y0128864D01*
X0209465Y0129008D01*
X0209435Y0129153D01*
X0209409Y0129299D01*
X0209388Y0129445D01*
X0209370Y0129592D01*
X0209356Y0129739D01*
X0209346Y0129887D01*
X0209340Y0130035D01*
X0209338Y0130183D01*
X0209338Y0067683D02*
X0209340Y0067831D01*
X0209346Y0067979D01*
X0209356Y0068127D01*
X0209370Y0068274D01*
X0209388Y0068421D01*
X0209409Y0068567D01*
X0209435Y0068713D01*
X0209465Y0068858D01*
X0209498Y0069002D01*
X0209536Y0069145D01*
X0209577Y0069287D01*
X0209622Y0069428D01*
X0209670Y0069568D01*
X0209723Y0069707D01*
X0209779Y0069844D01*
X0209839Y0069979D01*
X0209902Y0070113D01*
X0209969Y0070245D01*
X0210040Y0070375D01*
X0210114Y0070503D01*
X0210191Y0070629D01*
X0210272Y0070753D01*
X0210356Y0070875D01*
X0210443Y0070994D01*
X0210534Y0071111D01*
X0210628Y0071226D01*
X0210724Y0071338D01*
X0210824Y0071448D01*
X0210926Y0071554D01*
X0211032Y0071658D01*
X0211140Y0071759D01*
X0211251Y0071857D01*
X0211364Y0071953D01*
X0211480Y0072045D01*
X0211598Y0072134D01*
X0211719Y0072219D01*
X0211842Y0072302D01*
X0211967Y0072381D01*
X0212094Y0072457D01*
X0212223Y0072529D01*
X0212354Y0072598D01*
X0212487Y0072663D01*
X0212622Y0072724D01*
X0212758Y0072782D01*
X0212895Y0072837D01*
X0213034Y0072887D01*
X0213175Y0072934D01*
X0213316Y0072977D01*
X0213459Y0073017D01*
X0213603Y0073052D01*
X0213747Y0073084D01*
X0213893Y0073111D01*
X0214039Y0073135D01*
X0214186Y0073155D01*
X0214333Y0073171D01*
X0214480Y0073183D01*
X0214628Y0073191D01*
X0214776Y0073195D01*
X0214924Y0073195D01*
X0215072Y0073191D01*
X0215220Y0073183D01*
X0215367Y0073171D01*
X0215514Y0073155D01*
X0215661Y0073135D01*
X0215807Y0073111D01*
X0215953Y0073084D01*
X0216097Y0073052D01*
X0216241Y0073017D01*
X0216384Y0072977D01*
X0216525Y0072934D01*
X0216666Y0072887D01*
X0216805Y0072837D01*
X0216942Y0072782D01*
X0217078Y0072724D01*
X0217213Y0072663D01*
X0217346Y0072598D01*
X0217477Y0072529D01*
X0217606Y0072457D01*
X0217733Y0072381D01*
X0217858Y0072302D01*
X0217981Y0072219D01*
X0218102Y0072134D01*
X0218220Y0072045D01*
X0218336Y0071953D01*
X0218449Y0071857D01*
X0218560Y0071759D01*
X0218668Y0071658D01*
X0218774Y0071554D01*
X0218876Y0071448D01*
X0218976Y0071338D01*
X0219072Y0071226D01*
X0219166Y0071111D01*
X0219257Y0070994D01*
X0219344Y0070875D01*
X0219428Y0070753D01*
X0219509Y0070629D01*
X0219586Y0070503D01*
X0219660Y0070375D01*
X0219731Y0070245D01*
X0219798Y0070113D01*
X0219861Y0069979D01*
X0219921Y0069844D01*
X0219977Y0069707D01*
X0220030Y0069568D01*
X0220078Y0069428D01*
X0220123Y0069287D01*
X0220164Y0069145D01*
X0220202Y0069002D01*
X0220235Y0068858D01*
X0220265Y0068713D01*
X0220291Y0068567D01*
X0220312Y0068421D01*
X0220330Y0068274D01*
X0220344Y0068127D01*
X0220354Y0067979D01*
X0220360Y0067831D01*
X0220362Y0067683D01*
X0220360Y0067535D01*
X0220354Y0067387D01*
X0220344Y0067239D01*
X0220330Y0067092D01*
X0220312Y0066945D01*
X0220291Y0066799D01*
X0220265Y0066653D01*
X0220235Y0066508D01*
X0220202Y0066364D01*
X0220164Y0066221D01*
X0220123Y0066079D01*
X0220078Y0065938D01*
X0220030Y0065798D01*
X0219977Y0065659D01*
X0219921Y0065522D01*
X0219861Y0065387D01*
X0219798Y0065253D01*
X0219731Y0065121D01*
X0219660Y0064991D01*
X0219586Y0064863D01*
X0219509Y0064737D01*
X0219428Y0064613D01*
X0219344Y0064491D01*
X0219257Y0064372D01*
X0219166Y0064255D01*
X0219072Y0064140D01*
X0218976Y0064028D01*
X0218876Y0063918D01*
X0218774Y0063812D01*
X0218668Y0063708D01*
X0218560Y0063607D01*
X0218449Y0063509D01*
X0218336Y0063413D01*
X0218220Y0063321D01*
X0218102Y0063232D01*
X0217981Y0063147D01*
X0217858Y0063064D01*
X0217733Y0062985D01*
X0217606Y0062909D01*
X0217477Y0062837D01*
X0217346Y0062768D01*
X0217213Y0062703D01*
X0217078Y0062642D01*
X0216942Y0062584D01*
X0216805Y0062529D01*
X0216666Y0062479D01*
X0216525Y0062432D01*
X0216384Y0062389D01*
X0216241Y0062349D01*
X0216097Y0062314D01*
X0215953Y0062282D01*
X0215807Y0062255D01*
X0215661Y0062231D01*
X0215514Y0062211D01*
X0215367Y0062195D01*
X0215220Y0062183D01*
X0215072Y0062175D01*
X0214924Y0062171D01*
X0214776Y0062171D01*
X0214628Y0062175D01*
X0214480Y0062183D01*
X0214333Y0062195D01*
X0214186Y0062211D01*
X0214039Y0062231D01*
X0213893Y0062255D01*
X0213747Y0062282D01*
X0213603Y0062314D01*
X0213459Y0062349D01*
X0213316Y0062389D01*
X0213175Y0062432D01*
X0213034Y0062479D01*
X0212895Y0062529D01*
X0212758Y0062584D01*
X0212622Y0062642D01*
X0212487Y0062703D01*
X0212354Y0062768D01*
X0212223Y0062837D01*
X0212094Y0062909D01*
X0211967Y0062985D01*
X0211842Y0063064D01*
X0211719Y0063147D01*
X0211598Y0063232D01*
X0211480Y0063321D01*
X0211364Y0063413D01*
X0211251Y0063509D01*
X0211140Y0063607D01*
X0211032Y0063708D01*
X0210926Y0063812D01*
X0210824Y0063918D01*
X0210724Y0064028D01*
X0210628Y0064140D01*
X0210534Y0064255D01*
X0210443Y0064372D01*
X0210356Y0064491D01*
X0210272Y0064613D01*
X0210191Y0064737D01*
X0210114Y0064863D01*
X0210040Y0064991D01*
X0209969Y0065121D01*
X0209902Y0065253D01*
X0209839Y0065387D01*
X0209779Y0065522D01*
X0209723Y0065659D01*
X0209670Y0065798D01*
X0209622Y0065938D01*
X0209577Y0066079D01*
X0209536Y0066221D01*
X0209498Y0066364D01*
X0209465Y0066508D01*
X0209435Y0066653D01*
X0209409Y0066799D01*
X0209388Y0066945D01*
X0209370Y0067092D01*
X0209356Y0067239D01*
X0209346Y0067387D01*
X0209340Y0067535D01*
X0209338Y0067683D01*
D14*
X0148300Y0125483D02*
X0148300Y0130487D01*
X0145798Y0130487D01*
X0144964Y0129653D01*
X0144964Y0127985D01*
X0145798Y0127151D01*
X0148300Y0127151D01*
X0143144Y0127151D02*
X0141476Y0128819D01*
X0140642Y0128819D01*
X0138847Y0127985D02*
X0138847Y0126317D01*
X0138013Y0125483D01*
X0136345Y0125483D01*
X0135511Y0126317D01*
X0135511Y0127985D01*
X0136345Y0128819D01*
X0138013Y0128819D01*
X0138847Y0127985D01*
X0143144Y0128819D02*
X0143144Y0125483D01*
X0128534Y0125483D02*
X0128534Y0130487D01*
X0126866Y0128819D01*
X0125198Y0130487D01*
X0125198Y0125483D01*
X0123378Y0125483D02*
X0121710Y0125483D01*
X0122544Y0125483D02*
X0122544Y0128819D01*
X0123378Y0128819D01*
X0122544Y0130487D02*
X0122544Y0131321D01*
X0119940Y0127985D02*
X0119106Y0128819D01*
X0116604Y0128819D01*
X0116604Y0130487D02*
X0116604Y0125483D01*
X0119106Y0125483D01*
X0119940Y0126317D01*
X0119940Y0127985D01*
X0114784Y0128819D02*
X0113950Y0128819D01*
X0113950Y0125483D01*
X0114784Y0125483D02*
X0113116Y0125483D01*
X0106190Y0125483D02*
X0102854Y0125483D01*
X0104522Y0125483D02*
X0104522Y0130487D01*
X0106190Y0128819D01*
X0101033Y0129653D02*
X0100199Y0130487D01*
X0098531Y0130487D01*
X0097697Y0129653D01*
X0097697Y0128819D01*
X0101033Y0125483D01*
X0097697Y0125483D01*
X0095877Y0126317D02*
X0095877Y0127151D01*
X0095043Y0127985D01*
X0093375Y0127985D01*
X0092541Y0127151D01*
X0092541Y0126317D01*
X0093375Y0125483D01*
X0095043Y0125483D01*
X0095877Y0126317D01*
X0095043Y0127985D02*
X0095877Y0128819D01*
X0095877Y0129653D01*
X0095043Y0130487D01*
X0093375Y0130487D01*
X0092541Y0129653D01*
X0092541Y0128819D01*
X0093375Y0127985D01*
X0090721Y0127985D02*
X0088218Y0130487D01*
X0088218Y0125483D01*
X0085564Y0125483D02*
X0085564Y0130487D01*
X0083062Y0130487D01*
X0082228Y0129653D01*
X0082228Y0127985D01*
X0083062Y0127151D01*
X0085564Y0127151D01*
X0087384Y0127985D02*
X0090721Y0127985D01*
X0075251Y0127985D02*
X0071915Y0127985D01*
X0064939Y0127151D02*
X0062437Y0127151D01*
X0061602Y0127985D01*
X0061602Y0129653D01*
X0062437Y0130487D01*
X0064939Y0130487D01*
X0064939Y0125483D01*
X0063271Y0127151D02*
X0061602Y0125483D01*
X0059782Y0125483D02*
X0056446Y0125483D01*
X0058114Y0125483D02*
X0058114Y0130487D01*
X0059782Y0128819D01*
X0054626Y0126317D02*
X0054626Y0125483D01*
X0053792Y0125483D01*
X0053792Y0126317D01*
X0054626Y0126317D01*
X0052048Y0126317D02*
X0051214Y0125483D01*
X0049546Y0125483D01*
X0048711Y0126317D01*
X0048711Y0127985D01*
X0049546Y0128819D01*
X0050380Y0128819D01*
X0052048Y0127985D01*
X0052048Y0130487D01*
X0048711Y0130487D01*
X0113950Y0130487D02*
X0113950Y0131321D01*
M02*
