%
M48
M72
T01C0.01200
T02C0.03543
T03C0.04000
T04C0.11024
%
T01
X157350Y98933
X199519Y73933
X29850Y106433
X154850Y113733
X117565Y98933
X187350Y123933
X148600Y83933
X184850Y82933
X164950Y98933
X109850Y81433
X115281Y123933
X144850Y102083
X39850Y113933
X59850Y113733
X107350Y114933
X129419Y73933
X167781Y123933
X149850Y102083
X145450Y81433
X42350Y106433
X152350Y116724
X92350Y115183
X159850Y95783
X129419Y123933
X59850Y131433
X59850Y126433
X109850Y126233
X112350Y118933
X104850Y119333
X162350Y92634
X179850Y134133
X108683Y121433
X115447Y118933
X132350Y116433
X187350Y71433
X179850Y111531
X179850Y128933
X166682Y106433
X62350Y106433
X49850Y102150
X163682Y111433
X187350Y148727
X162350Y89484
X189850Y53533
X119850Y80068
X62350Y76833
X24950Y88933
X170853Y78751
X196971Y68933
X192350Y131083
X127350Y146833
X34850Y98933
X24950Y98933
X99850Y128933
X92350Y126433
X94850Y110871
X139850Y138933
X62350Y123933
X62350Y116433
X59040Y96433
X39850Y66733
X90200Y91433
X142301Y113933
X111500Y103933
X97350Y98933
X137350Y131083
X132350Y131108
X136002Y113933
X90600Y103933
X112916Y126433
X119850Y135683
X118108Y111433
X64850Y126054
X28016Y121433
X153850Y128933
X32350Y73933
X161198Y128933
X157350Y116433
X154850Y66783
X162248Y68933
X150900Y81433
X149150Y68933
X169850Y51433
X161198Y81433
X194850Y66783
X139850Y86333
X134850Y86335
X130518Y83185
X119850Y58933
X134952Y68933
X130752Y68933
X142301Y68933
X107350Y78933
X132350Y105232
X67350Y69783
X54850Y67283
X118236Y106433
X137350Y105508
X68700Y126433
X100186Y93644
X94850Y82310
X90189Y98933
X112350Y83933
T02
X14850Y83933
X24850Y83933
X24850Y93933
X14850Y93933
X14850Y73933
X24850Y73933
X74850Y103933
X84850Y103933
X74850Y123933
X84850Y123933
X74850Y113933
X84850Y113933
X74850Y93933
X84850Y93933
X74850Y83933
X84850Y83933
X74850Y73933
X84850Y73933
T03
X14850Y138933
X24850Y138933
X34850Y138933
X44850Y138933
X54850Y138933
X64850Y138933
X74850Y138933
X84850Y138933
X94850Y138933
X104850Y138933
X114850Y138933
X124850Y138933
X134850Y138933
X144850Y138933
X154850Y138933
X164850Y138933
X174850Y138933
X184850Y138933
X194850Y138933
X204850Y138933
X204850Y58933
X194850Y58933
X184850Y58933
X174850Y58933
X164850Y58933
X154850Y58933
X144850Y58933
X134850Y58933
X124850Y58933
X114850Y58933
X104850Y58933
X94850Y58933
X84850Y58933
X74850Y58933
X64850Y58933
X54850Y58933
X44850Y58933
X34850Y58933
X24850Y58933
X14850Y58933
X204850Y78933
X204850Y88933
X204850Y98933
X204850Y108933
X204850Y118933
T04
X214850Y67683
X214850Y130183
X11100Y108933
M30
